<?xml version="1.0" encoding="UTF-8"?>
<svg xmlns="http://www.w3.org/2000/svg" width="1024" height="1024" viewBox="0 0 100 100">
  <defs>
    <!-- Colors -->
    <linearGradient id="orangeCore" x1="0" y1="0" x2="0" y2="1">
      <stop offset="0%" stop-color="#FF9A3C"/>
      <stop offset="100%" stop-color="#FF7A1A"/>
    </linearGradient>

    <!-- Soft vignette background -->
    <radialGradient id="bgGrad" cx="50%" cy="45%" r="70%">
      <stop offset="0%" stop-color="#161616"/>
      <stop offset="100%" stop-color="#0E0E0E"/>
    </radialGradient>

    <!-- Outer glow -->
    <filter id="outerGlow" x="-50%" y="-50%" width="200%" height="200%">
      <feGaussianBlur stdDeviation="2.8" result="blur"/>
      <feColorMatrix type="matrix" values="
        1 0 0 0 0
        0 1 0 0 0
        0 0 1 0 0
        0 0 0 1 0" />
      <feMerge>
        <feMergeNode in="blur"/>
      </feMerge>
    </filter>

    <!-- Inner glow (subtle) -->
    <filter id="innerGlow" x="-50%" y="-50%" width="200%" height="200%">
      <feGaussianBlur stdDeviation="0.6" result="glow"/>
      <feMerge>
        <feMergeNode in="glow"/>
      </feMerge>
    </filter>
  </defs>

  <!-- Background -->
  <rect width="100" height="100" fill="url(#bgGrad)"/>

  <!-- Chat bubble + tail path (single path for perfect joins) -->
  <!-- The path draws a rounded rectangle  with r=9 and a tail at bottom-left -->
  <g fill="none" stroke-linecap="round" stroke-linejoin="round">
    <!-- Outer glow stroke -->
    <path d="
      M 20 25
      h 48
      a 9 9 0 0 1 9 9
      v 28
      a 9 9 0 0 1 -9 9
      H 41
      l -14 10
      v -10
      h -7
      a 9 9 0 0 1 -9 -9
      V 34
      a 9 9 0 0 1 9 -9
      Z" 
      stroke="#FF7A1A" stroke-width="6.5" filter="url(#outerGlow)" opacity="0.85"/>
    
    <!-- Crisp core stroke -->
    <path d="
      M 20 25
      h 48
      a 9 9 0 0 1 9 9
      v 28
      a 9 9 0 0 1 -9 9
      H 41
      l -14 10
      v -10
      h -7
      a 9 9 0 0 1 -9 -9
      V 34
      a 9 9 0 0 1 9 -9
      Z" 
      stroke="url(#orangeCore)" stroke-width="4.2" filter="url(#innerGlow)"/>
  </g>

  <!-- Message lines -->
  <g stroke-linecap="round" stroke="url(#orangeCore)" fill="none">
    <!-- Glows -->
    <g filter="url(#outerGlow)" opacity="0.85" stroke="#FF7A1A">
      <line x1="30" y1="41" x2="64" y2="41" stroke-width="4.8"/>
      <line x1="30" y1="50" x2="64" y2="50" stroke-width="4.8"/>
      <line x1="30" y1="59" x2="54" y2="59" stroke-width="4.8"/>
    </g>
    <!-- Core strokes -->
    <line x1="30" y1="41" x2="64" y2="41" stroke-width="3.2" filter="url(#innerGlow)"/>
    <line x1="30" y1="50" x2="64" y2="50" stroke-width="3.2" filter="url(#innerGlow)"/>
    <line x1="30" y1="59" x2="54" y2="59" stroke-width="3.2" filter="url(#innerGlow)"/>
  </g>
</svg>
